<mxfile host="app.diagrams.net" agent="Mozilla/5.0 (Macintosh; Intel Mac OS X 10_15_7) AppleWebKit/537.36 (KHTML, like Gecko) Chrome/130.0.0.0 Safari/537.36" version="24.8.4">
  <diagram id="C5RBs43oDa-KdzZeNtuy" name="Page-1">
    <mxGraphModel grid="1" page="1" gridSize="10" guides="1" tooltips="1" connect="1" arrows="1" fold="1" pageScale="1" pageWidth="827" pageHeight="1169" math="0" shadow="0">
      <root>
        <mxCell id="WIyWlLk6GJQsqaUBKTNV-0" />
        <mxCell id="WIyWlLk6GJQsqaUBKTNV-1" parent="WIyWlLk6GJQsqaUBKTNV-0" />
        <mxCell id="Jr42eCUc6g5V1k2Y49N9-10" style="edgeStyle=orthogonalEdgeStyle;rounded=0;orthogonalLoop=1;jettySize=auto;html=1;shape=flexArrow;noEdgeStyle=1;orthogonal=1;" edge="1" parent="WIyWlLk6GJQsqaUBKTNV-1" source="LZZLjWpjytnXYlWd8Y8f-5" target="Jr42eCUc6g5V1k2Y49N9-9">
          <mxGeometry relative="1" as="geometry">
            <Array as="points">
              <mxPoint x="432" y="30" />
              <mxPoint x="508" y="30" />
            </Array>
          </mxGeometry>
        </mxCell>
        <mxCell id="LZZLjWpjytnXYlWd8Y8f-5" value="Service Classes" style="rounded=0;whiteSpace=wrap;html=1;fillColor=#FFCE9F;container=0;" vertex="1" parent="WIyWlLk6GJQsqaUBKTNV-1">
          <mxGeometry x="260" width="160" height="60" as="geometry" />
        </mxCell>
        <mxCell id="Jr42eCUc6g5V1k2Y49N9-4" style="edgeStyle=orthogonalEdgeStyle;rounded=0;orthogonalLoop=1;jettySize=auto;html=1;noEdgeStyle=1;orthogonal=1;entryX=0;entryY=0.25;entryDx=0;entryDy=0;" edge="1" parent="WIyWlLk6GJQsqaUBKTNV-1" source="Jr42eCUc6g5V1k2Y49N9-2" target="Jr42eCUc6g5V1k2Y49N9-3">
          <mxGeometry relative="1" as="geometry">
            <Array as="points">
              <mxPoint x="172" y="230" />
            </Array>
          </mxGeometry>
        </mxCell>
        <mxCell id="Jr42eCUc6g5V1k2Y49N9-7" style="edgeStyle=orthogonalEdgeStyle;rounded=0;orthogonalLoop=1;jettySize=auto;html=1;noEdgeStyle=1;orthogonal=1;" edge="1" parent="WIyWlLk6GJQsqaUBKTNV-1" source="Jr42eCUc6g5V1k2Y49N9-2" target="Jr42eCUc6g5V1k2Y49N9-1">
          <mxGeometry relative="1" as="geometry">
            <Array as="points">
              <mxPoint x="174" y="220" />
            </Array>
          </mxGeometry>
        </mxCell>
        <mxCell id="Jr42eCUc6g5V1k2Y49N9-8" style="edgeStyle=orthogonalEdgeStyle;rounded=0;orthogonalLoop=1;jettySize=auto;html=1;noEdgeStyle=1;orthogonal=1;" edge="1" parent="WIyWlLk6GJQsqaUBKTNV-1" source="Jr42eCUc6g5V1k2Y49N9-2" target="LZZLjWpjytnXYlWd8Y8f-5">
          <mxGeometry relative="1" as="geometry">
            <Array as="points">
              <mxPoint x="172" y="190" />
              <mxPoint x="248" y="30" />
            </Array>
          </mxGeometry>
        </mxCell>
        <mxCell id="Jr42eCUc6g5V1k2Y49N9-2" value="LoggerKafkaConsumer" style="rounded=0;whiteSpace=wrap;html=1;fillColor=#D4E1F5;container=0;" vertex="1" parent="WIyWlLk6GJQsqaUBKTNV-1">
          <mxGeometry y="180" width="160" height="60" as="geometry" />
        </mxCell>
        <mxCell id="Jr42eCUc6g5V1k2Y49N9-9" value="BaseService" style="rounded=0;whiteSpace=wrap;html=1;fillColor=#D4E1F5;container=0;" vertex="1" parent="WIyWlLk6GJQsqaUBKTNV-1">
          <mxGeometry x="520" width="160" height="60" as="geometry" />
        </mxCell>
        <mxCell id="Jr42eCUc6g5V1k2Y49N9-11" value="logger-kafka-consumer" style="swimlane;whiteSpace=wrap;html=1;" vertex="1" parent="WIyWlLk6GJQsqaUBKTNV-1">
          <mxGeometry x="-30" y="-50" width="740" height="490" as="geometry" />
        </mxCell>
        <mxCell id="Jr42eCUc6g5V1k2Y49N9-12" value="extend" style="text;html=1;align=center;verticalAlign=middle;whiteSpace=wrap;rounded=0;" vertex="1" parent="Jr42eCUc6g5V1k2Y49N9-11">
          <mxGeometry x="470" y="50" width="60" height="30" as="geometry" />
        </mxCell>
        <mxCell id="Jr42eCUc6g5V1k2Y49N9-14" value="uses" style="text;html=1;align=center;verticalAlign=middle;whiteSpace=wrap;rounded=0;" vertex="1" parent="Jr42eCUc6g5V1k2Y49N9-11">
          <mxGeometry x="210" y="80" width="60" height="30" as="geometry" />
        </mxCell>
        <mxCell id="Jr42eCUc6g5V1k2Y49N9-17" value="uses" style="text;html=1;align=center;verticalAlign=middle;whiteSpace=wrap;rounded=0;" vertex="1" parent="Jr42eCUc6g5V1k2Y49N9-11">
          <mxGeometry x="215" y="211" width="60" height="30" as="geometry" />
        </mxCell>
        <mxCell id="Jr42eCUc6g5V1k2Y49N9-18" value="uses" style="text;html=1;align=center;verticalAlign=middle;whiteSpace=wrap;rounded=0;" vertex="1" parent="Jr42eCUc6g5V1k2Y49N9-11">
          <mxGeometry x="216" y="311" width="60" height="30" as="geometry" />
        </mxCell>
        <mxCell id="Jr42eCUc6g5V1k2Y49N9-1" value="TimDataConverter" style="rounded=0;whiteSpace=wrap;html=1;fillColor=#D4E1F5;container=0;" vertex="1" parent="Jr42eCUc6g5V1k2Y49N9-11">
          <mxGeometry x="290" y="167" width="160" height="60" as="geometry" />
        </mxCell>
        <mxCell id="Jr42eCUc6g5V1k2Y49N9-3" value="LoggerConfiguration" style="rounded=0;whiteSpace=wrap;html=1;fillColor=#D4E1F5;container=0;" vertex="1" parent="Jr42eCUc6g5V1k2Y49N9-11">
          <mxGeometry x="290" y="317" width="160" height="60" as="geometry" />
        </mxCell>
      </root>
    </mxGraphModel>
  </diagram>
</mxfile>
